<?xml version="1.0" encoding="UTF-8" standalone="no"?>
<svg
   xmlns:dc="http://purl.org/dc/elements/1.1/"
   xmlns:cc="http://creativecommons.org/ns#"
   xmlns:rdf="http://www.w3.org/1999/02/22-rdf-syntax-ns#"
   xmlns:svg="http://www.w3.org/2000/svg"
   xmlns="http://www.w3.org/2000/svg"
   width="64"
   height="64"
   viewBox="0 0 16.933333 16.933334"
   version="1.1"
   id="svg8">
  <defs
     id="defs2" />
  <metadata
     id="metadata5">
    <rdf:RDF>
      <cc:Work
         rdf:about="">
        <dc:format>image/svg+xml</dc:format>
        <dc:type
           rdf:resource="http://purl.org/dc/dcmitype/StillImage" />
        <dc:title></dc:title>
      </cc:Work>
    </rdf:RDF>
  </metadata>
  <g
     id="layer1">
    <path
       id="rect12"
       style="fill:#eeeeee;fill-opacity:1;fill-rule:evenodd;stroke:#000000;stroke-width:1.8897638;stroke-opacity:1;stroke-miterlimit:4;stroke-dasharray:none"
       d="M 6 8 C 4.8919997 8 4 8.8919997 4 10 L 4 22 L 60 22 L 60 10 C 60 8.8919997 59.108003 8 58 8 L 6 8 z "
       transform="scale(0.26458333)" />
    <path
       id="rect12-3"
       style="fill:#eeeeee;fill-opacity:1;fill-rule:evenodd;stroke:#000000;stroke-width:1.8897638;stroke-opacity:1;stroke-miterlimit:4;stroke-dasharray:none"
       d="M 4 22 L 4 54 C 4 55.107999 4.8920001 56 6 56 L 58 56 C 59.108003 56 60 55.107999 60 54 L 60 22 L 4 22 z "
       transform="scale(0.26458333)" />
    <rect
       style="fill:#000000;fill-opacity:1;stroke:none;stroke-width:0.264583;stroke-opacity:1"
       id="rect881"
       width="8.4666672"
       height="0.52916688"
       x="4.2333336"
       y="3.7041667"
       ry="0.24266806" />
    <g
       aria-label="-&gt;*"
       id="text927"
       style="font-style:normal;font-weight:normal;font-size:10.5833px;line-height:1.25;font-family:sans-serif;fill:#000000;fill-opacity:1;stroke:none;stroke-width:0.264583">
      <path
         d="m 2.9975739,10.43554 h 1.7948959 v 0.564996 H 2.9975739 Z"
         style="font-style:normal;font-variant:normal;font-weight:normal;font-stretch:normal;font-size:7.05556px;font-family:'DejaVu Sans Mono';-inkscape-font-specification:'DejaVu Sans Mono';fill:#000000;fill-opacity:1;stroke-width:0.264583"
         id="path836" />
      <path
         d="M 6.3186482,9.3399989 V 8.7129911 l 3.6414682,1.4400509 v 0.571886 l -3.6414682,1.440051 v -0.630453 l 2.928333,-1.092096 z"
         style="font-style:normal;font-variant:normal;font-weight:normal;font-stretch:normal;font-size:7.05556px;font-family:'DejaVu Sans Mono';-inkscape-font-specification:'DejaVu Sans Mono';fill:#000000;fill-opacity:1;stroke-width:0.264583"
         id="path838" />
      <path
         d="m 13.935759,8.3547009 -1.233345,0.668349 1.233345,0.671794 -0.19637,0.3376201 -1.157553,-0.6993553 V 10.631911 H 12.18565 V 9.3331087 L 11.028097,10.032464 10.831726,9.6948439 12.065071,9.0230499 10.831726,8.3547009 11.028097,8.0136362 12.18565,8.7129911 V 7.4141892 h 0.396186 v 1.2988019 l 1.157553,-0.6993549 z"
         style="font-style:normal;font-variant:normal;font-weight:normal;font-stretch:normal;font-size:7.05556px;font-family:'DejaVu Sans Mono';-inkscape-font-specification:'DejaVu Sans Mono';fill:#000000;fill-opacity:1;stroke-width:0.264583"
         id="path840" />
    </g>
  </g>
</svg>
